<svg xmlns="http://www.w3.org/2000/svg" width="58" height="58" viewBox="0 0 58 58" fill="none">
  <rect width="58" height="58" rx="12" fill="#333"/>
  <path d="M29 14 C20.7 14 14 20.7 14 29 C14 35.3 17.7 40.8 23 43 C23.8 43.2 24.1 42.7 24.1 42.2 V39.8 C20.7 40.8 19.9 38.5 19.9 38.5 C19.2 36.7 18.1 36.2 18.1 36.2 C16.5 35.2 18.3 35.2 18.3 35.2 C20.1 35.3 21 37 21 37 C22.5 39.6 25 38.8 24.2 38.5 C24.4 37.4 24.8 36.6 25.3 36.3 C22.3 36 19.1 34.6 19.1 29.1 C19.1 27.4 19.7 26 21 24.9 C20.8 24.6 20.2 23 21.2 20.8 C21.2 20.8 22.6 20.3 24.1 21.4 C25.4 21.1 26.7 20.9 29 20.9 C31.3 20.9 32.6 21.1 33.9 21.4 C35.4 20.3 36.8 20.8 36.8 20.8 C37.8 23 37.2 24.6 37 24.9 C38.3 26 38.9 27.4 38.9 29.1 C38.9 34.6 35.7 36 32.7 36.3 C33.3 36.8 33.9 37.8 33.9 39.3 V42.2 C33.9 42.7 34.2 43.2 35 43 C40.3 40.8 44 35.3 44 29 C44 20.7 37.3 14 29 14 Z" fill="white"/>
</svg>