<?xml version="1.0" standalone="no"?>
<!DOCTYPE svg PUBLIC "-//W3C//DTD SVG 20010904//EN"
 "http://www.w3.org/TR/2001/REC-SVG-20010904/DTD/svg10.dtd">
<svg version="1.0" xmlns="http://www.w3.org/2000/svg"
 width="1280.000000pt" height="640.000000pt" viewBox="0 0 1280.000000 640.000000"
 preserveAspectRatio="xMidYMid meet">
<g transform="translate(0.000000,640.000000) scale(0.100000,-0.100000)"
fill="#000000" stroke="none">
<path d="M2145 5648 c-3 -7 -4 -1113 -3 -2458 l3 -2445 295 0 295 0 0 2455 0
2455 -293 3 c-229 2 -294 0 -297 -10z"/>
<path d="M10065 5648 c-3 -7 -4 -1113 -3 -2458 l3 -2445 295 0 295 0 0 2455 0
2455 -293 3 c-229 2 -294 0 -297 -10z"/>
<path d="M1362 3203 l3 -1948 290 0 290 0 3 1948 2 1947 -295 0 -295 0 2
-1947z"/>
<path d="M10852 3203 l3 -1948 290 0 290 0 3 1948 2 1947 -295 0 -295 0 2
-1947z"/>
<path d="M577 4643 c-4 -3 -7 -654 -7 -1445 l0 -1438 295 0 295 0 0 1445 0
1445 -288 0 c-159 0 -292 -3 -295 -7z"/>
<path d="M11640 3205 l0 -1445 295 0 295 0 -2 1443 -3 1442 -292 3 -293 2 0
-1445z"/>
<path d="M0 3200 l0 -260 193 2 192 3 3 258 2 257 -195 0 -195 0 0 -260z"/>
<path d="M2932 3203 l3 -258 3465 0 3465 0 3 258 2 257 -3470 0 -3470 0 2
-257z"/>
<path d="M12412 3203 l3 -258 193 -3 192 -2 0 260 0 260 -195 0 -195 0 2 -257z"/>
</g>
</svg>
