<svg xmlns="http://www.w3.org/2000/svg" width="200" height="200" viewBox="0 0 200 200" fill="none">
  <defs>
    <linearGradient id="bookGradient" x1="0%" y1="0%" x2="100%" y2="100%">
      <stop offset="0%" style="stop-color:#7c3aed;stop-opacity:1" />
      <stop offset="100%" style="stop-color:#a855f7;stop-opacity:1" />
    </linearGradient>
  </defs>
  <rect width="200" height="200" rx="20" fill="url(#bookGradient)"/>
  
  <!-- Bible Book -->
  <rect x="60" y="50" width="80" height="100" rx="4" fill="#2d1b69" stroke="#1e1065" stroke-width="2"/>
  <rect x="65" y="55" width="70" height="90" rx="2" fill="white"/>
  
  <!-- Book spine -->
  <rect x="60" y="50" width="8" height="100" rx="4" fill="#1e1065"/>
  
  <!-- Cross on cover -->
  <rect x="95" y="75" width="4" height="20" rx="2" fill="#7c3aed"/>
  <rect x="87" y="81" width="20" height="4" rx="2" fill="#7c3aed"/>
  
  <!-- Holy Bible text -->
  <rect x="75" y="110" width="40" height="2" rx="1" fill="#7c3aed"/>
  <rect x="80" y="115" width="30" height="2" rx="1" fill="#7c3aed"/>
  
  <!-- Pages detail -->
  <line x1="135" y1="55" x2="135" y2="145" stroke="#e2e8f0" stroke-width="1"/>
  <line x1="130" y1="55" x2="130" y2="145" stroke="#f1f5f9" stroke-width="1"/>
  
  <!-- Bookmark ribbon -->
  <rect x="97" y="50" width="6" height="30" fill="#dc2626"/>
  <path d="M97 80 L100 75 L103 80 Z" fill="#dc2626"/>
  
  <!-- Divine light -->
  <circle cx="100" cy="30" r="15" fill="rgba(255,255,255,0.3)"/>
  <path d="M100 15 L105 25 L100 35 L95 25 Z" fill="rgba(255,255,255,0.6)"/>
  <path d="M85 30 L95 35 L115 25 L105 20 Z" fill="rgba(255,255,255,0.4)" opacity="0.7"/>
  <path d="M85 30 L95 25 L115 35 L105 40 Z" fill="rgba(255,255,255,0.4)" opacity="0.7"/>
</svg>