<svg xmlns="http://www.w3.org/2000/60" width="60" height="60" viewBox="0 0 60 60" fill="none">
  <circle cx="30" cy="30" r="30" fill="#059669"/>
  <!-- Barbell -->
  <rect x="8" y="28" width="44" height="4" rx="2" fill="white"/>
  <!-- Left weights -->
  <rect x="6" y="22" width="8" height="16" rx="2" fill="white"/>
  <rect x="4" y="24" width="4" height="12" rx="1" fill="#e5e7eb"/>
  <!-- Right weights -->
  <rect x="46" y="22" width="8" height="16" rx="2" fill="white"/>
  <rect x="52" y="24" width="4" height="12" rx="1" fill="#e5e7eb"/>
  <!-- Grip texture -->
  <line x1="22" y1="27" x2="22" y2="33" stroke="#059669" stroke-width="0.5"/>
  <line x1="24" y1="27" x2="24" y2="33" stroke="#059669" stroke-width="0.5"/>
  <line x1="26" y1="27" x2="26" y2="33" stroke="#059669" stroke-width="0.5"/>
  <line x1="34" y1="27" x2="34" y2="33" stroke="#059669" stroke-width="0.5"/>
  <line x1="36" y1="27" x2="36" y2="33" stroke="#059669" stroke-width="0.5"/>
  <line x1="38" y1="27" x2="38" y2="33" stroke="#059669" stroke-width="0.5"/>
  <!-- Motion indicator -->
  <path d="M20 18 Q30 12 40 18" stroke="white" stroke-width="2" fill="none" opacity="0.6"/>
  <path d="M20 42 Q30 48 40 42" stroke="white" stroke-width="2" fill="none" opacity="0.6"/>
</svg>